<svg class="svg-sprite" xmlns="http://www.w3.org/2000/svg" style="display: none;">
    <symbol id="cog-svg-symbol" viewBox="0 0 128 128">
        <g class="cog-svg-icon">
            <path d="M109.1,58.1l15.5-5l-5.2-15.9l-15.5,5c-5.7,1.9-10.5-4.7-6.9-9.5l9.6-13.2L93.1,9.8l-9.6,13.2c-3.5,4.9-11.2,2.4-11.2-3.6V3H55.7v16.3c0,6-7.7,8.5-11.2,3.6L34.9,9.8l-13.5,9.8L31,32.7c3.5,4.9-1.2,11.4-6.9,9.5l-15.5-5L3.4,53.1l15.5,5c5.7,1.9,5.7,9.9,0,11.8l-15.5,5l5.2,15.9l15.5-5c5.7-1.9,10.5,4.7,6.9,9.5l-9.6,13.2l13.5,9.8l9.6-13.2c3.5-4.9,11.2-2.4,11.2,3.6V125h16.7v-16.3c0-6,7.7-8.5,11.2-3.6l9.6,13.2l13.5-9.8L97,95.3c-3.5-4.9,1.2-11.4,6.9-9.5l15.5,5l5.2-15.9l-15.5-5C103.4,68,103.4,60,109.1,58.1z M64,91.4c-15.2,0-27.4-12.3-27.4-27.4S48.8,36.6,64,36.6S91.4,48.8,91.4,64S79.2,91.4,64,91.4z"/>
            <circle cx="64" cy="64" r="27.4"/>
        </g>
    </symbol>
    <symbol id="bubble-symbol" viewBox="0 0 128 128">
        <g class="bubble-svg-icon">
            <path id="bubble-path-4" d="M6.6,64c0,0,0-21.8,16.2-39.8S64,6.7,64,6.7"/>
            <path id="bubble-path-3" d="M64,6.7c0,0,21.8,0,39.8,16.2s17.5,41.3,17.5,41.3"/>
            <path id="bubble-path-2" d="M121.3,64c0,0,0,21.8-16.2,39.8s-41.3,17.5-41.3,17.5"/>
            <path id="bubble-path-1" d="M63.9,121.3c0,0-21.8,0-39.8-16.2S6.6,63.9,6.6,63.9"/>
        </g>
    </symbol>
</svg>
